#!OML:ASF F:\VICON\USERDATA\INSTALL\rory3\rory3.ASF
:FULLY-SPECIFIED
:DEGREES
207
root -4.91998 18.1643 3.80921 0.654488 -36.3825 1.86769
lowerback 14.2469 0.551882 1.38331
upperback 3.41148 1.02205 3.17031
thorax -4.4152 0.468011 2.371
lowerneck -12.9473 -3.09798 -13.2056
upperneck 39.7019 -2.18906 2.14497
head 16.8328 -2.78575 2.86351
rclavicle 7.35503e-014 9.54166e-015
rhumerus -31.3281 -8.81433 -75.0717
rradius 30.3324
rwrist 6.93026
rhand -12.8334 8.03574
rfingers 7.12502
rthumb 13.2538 -21.5229
lclavicle 7.35503e-014 9.54166e-015
lhumerus -33.0319 -21.5232 98.1133
lradius 48.065
lwrist -4.02224
lhand -16.5392 25.6579
lfingers 7.12502
lthumb 9.67992 55.4154
rfemur -15.5966 -5.63013 22.5393
rtibia 25.023
rfoot -8.38511 -4.5402
rtoes 12.4416
lfemur -13.8937 3.44846 -17.7308
ltibia 54.4816
lfoot 5.85965 -9.49221
ltoes -12.9241
208
root -4.98816 18.1526 3.87461 0.760974 -36.3293 1.78016
lowerback 14.2319 0.560313 1.48229
upperback 3.45479 1.04566 3.19589
thorax -4.36073 0.478292 2.33769
lowerneck -12.9483 -3.07934 -13.2798
upperneck 39.6867 -2.14752 2.18105
head 16.8231 -2.7729 2.90037
rclavicle -1.07741e-013 1.43125e-014
rhumerus -30.702 -9.16404 -74.892
rradius 30.5512
rwrist 6.85882
rhand -12.7896 8.0985
rfingers 7.12502
rthumb 13.296 -21.4574
lclavicle -1.07741e-013 1.43125e-014
lhumerus -32.7444 -20.807 97.9114
lradius 48.162
lwrist -3.7105
lhand -16.7897 26.2436
lfingers 7.12502
lthumb 9.43826 56.0123
rfemur -15.5873 -5.65677 22.6512
rtibia 25.5672
rfoot -8.96416 -4.61904
rtoes 12.128
lfemur -14.7545 3.62125 -17.655
ltibia 54.3768
lfoot 4.92967 -8.67451
ltoes -13.2944
209
root -5.05606 18.141 3.94311 0.842004 -36.3858 1.66063
lowerback 14.2594 0.616466 1.64204
upperback 3.47527 1.1419 3.18992
thorax -4.35375 0.523902 2.22371
lowerneck -12.8767 -3.07136 -13.4308
upperneck 39.7144 -2.20483 2.44466
head 16.8313 -2.78449 3.03769
rclavicle 7.55382e-014 -1.43125e-014
rhumerus -30.2558 -9.34751 -74.7901
rradius 31.0043
rwrist 6.51989
rhand -12.7894 7.81897
rfingers 7.12502
rthumb 13.2962 -21.7369
lclavicle 7.55382e-014 -1.43125e-014
lhumerus -32.6214 -20.2497 97.7516
lradius 48.1924
lwrist -3.65008
lhand -16.1006 26.868
lfingers 7.12502
lthumb 10.1031 56.6055
rfemur -15.4563 -5.81265 22.7805
rtibia 25.9671
rfoot -9.47684 -4.42608
rtoes 12.2205
lfemur -15.5272 3.81444 -17.5661
ltibia 54.1875
lfoot 3.81852 -7.62502
ltoes -11.3571
210
root -5.12433 18.1338 4.01371 0.805254 -36.4995 1.70919
lowerback 14.3868 0.732662 1.62952
upperback 3.45498 1.29651 3.14293
thorax -4.44797 0.599958 2.1529
lowerneck -12.7745 -3.10792 -13.4907
upperneck 39.7665 -2.32467 2.6056
head 16.8499 -2.82343 3.10194
rclavicle -5.92378e-014 -2.22639e-014
rhumerus -29.8782 -9.60915 -74.6587
rradius 31.4372
rwrist 6.09253
rhand -13.0282 7.61649
rfingers 7.12502
rthumb 13.0661 -21.9542
lclavicle -5.92378e-014 -2.22639e-014
lhumerus -32.5611 -19.7963 97.6594
lradius 48.1924
lwrist -3.53468
lhand -15.2097 27.2557
lfingers 7.12502
lthumb 10.9625 56.9495
rfemur -15.1847 -5.91964 22.7492
rtibia 26.1576
rfoot -9.925 -4.24026
rtoes 12.1069
lfemur -16.2974 4.06218 -17.6526
ltibia 53.9046
lfoot 2.72209 -6.91937
ltoes -10.4415
211
root -5.19247 18.138 4.08223 0.803972 -36.5304 1.64975
lowerback 14.539 0.817402 1.70329
upperback 3.47669 1.42247 3.13883
thorax -4.50922 0.66055 2.08303
lowerneck -12.7512 -3.16313 -13.4931
upperneck 39.8128 -2.39473 2.56703
head 16.8786 -2.85875 3.07356
rclavicle 1.82882e-014 2.8625e-014
rhumerus -29.4382 -10.0244 -74.4655
rradius 31.8236
rwrist 5.68253
rhand -13.2221 7.58803
rfingers 7.12502
rthumb 12.8791 -21.9946
lclavicle 1.82882e-014 2.8625e-014
lhumerus -32.3721 -19.2039 97.5472
lradius 48.256
lwrist -3.33683
lhand -15.3014 27.184
lfingers 7.12502
lthumb 10.874 56.8824
rfemur -14.8422 -5.91638 22.8135
rtibia 26.3266
rfoot -10.353 -4.26428
rtoes 11.7103
lfemur -17.1237 4.18673 -17.6166
ltibia 53.5202
lfoot 1.86802 -6.50929
ltoes -10.0798
212
root -5.25901 18.1328 4.15081 0.850957 -36.4665 1.5411
lowerback 14.5625 0.860398 1.87478
upperback 3.5447 1.50159 3.14877
thorax -4.44794 0.697362 1.98212
lowerneck -12.8311 -3.2035 -13.4159
upperneck 39.9243 -2.4086 2.42903
head 16.9599 -2.87494 2.99657
rclavicle 3.18055e-015 -3.18055e-015
rhumerus -28.9488 -10.353 -74.326
rradius 32.2801
rwrist 5.14718
rhand -13.4403 7.81912
rfingers 7.12502
rthumb 12.6688 -21.7766
lclavicle 3.18055e-015 -3.18055e-015
lhumerus -32.1971 -18.7708 97.4311
lradius 48.4718
lwrist -2.96609
lhand -16.0546 27.0767
lfingers 7.12502
lthumb 10.1475 56.812
rfemur -14.5666 -6.04817 22.9291
rtibia 26.5508
rfoot -10.8111 -4.25365
rtoes 11.4698
lfemur -17.8871 4.21061 -17.5415
ltibia 53.0143
lfoot 0.943301 -6.05363
ltoes -10.5171
213
root -5.324 18.1176 4.2187 0.914752 -36.3647 1.45924
lowerback 14.5359 0.906604 2.02937
upperback 3.62065 1.57962 3.1454
thorax -4.35065 0.734273 1.87756
lowerneck -12.941 -3.281 -13.3043
upperneck 39.9732 -2.49033 2.31174
head 17.0205 -2.90691 2.90947
rclavicle 4.77083e-015 2.70347e-014
rhumerus -28.4648 -10.5802 -74.2398
rradius 32.8694
rwrist 4.55223
rhand -13.505 8.48887
rfingers 7.12502
rthumb 12.6064 -21.1107
lclavicle 4.77083e-015 2.70347e-014
lhumerus -31.9916 -18.4722 97.3346
lradius 48.651
lwrist -2.30791
lhand -16.8399 26.9307
lfingers 7.12502
lthumb 9.38985 56.7016
rfemur -14.3695 -6.11466 23.0211
rtibia 26.8406
rfoot -11.3027 -4.35435
rtoes 11.2502
lfemur -18.6169 4.21954 -17.5092
ltibia 52.3875
lfoot 0.12051 -5.52283
ltoes -10.7028
214
root -5.38781 18.098 4.28342 1.04893 -36.2948 1.32453
lowerback 14.562 0.949626 2.21566
upperback 3.63798 1.66171 3.10767
thorax -4.34148 0.772974 1.7175
lowerneck -12.9286 -3.33614 -13.3019
upperneck 39.9454 -2.63608 2.46989
head 17.0184 -2.94185 2.95546
rclavicle -5.56597e-015 -7.95139e-015
rhumerus -27.9661 -11.0558 -74.1758
rradius 33.2726
rwrist 4.00967
rhand -13.1642 9.39667
rfingers 7.12502
rthumb 12.9349 -20.1824
lclavicle -5.56597e-015 -7.95139e-015
lhumerus -31.7876 -18.1422 97.1318
lradius 48.7475
lwrist -1.57876
lhand -17.2765 26.2164
lfingers 7.12502
lthumb 8.96858 56.0058
rfemur -14.2902 -6.05225 23.1732
rtibia 27.2342
rfoot -11.8681 -4.5987
rtoes 11.5035
lfemur -19.3782 4.38728 -17.4437
ltibia 51.6239
lfoot -0.689079 -5.16827
ltoes -11.8226
215
root -5.45205 18.08 4.3498 1.19632 -36.3475 1.21189
lowerback 14.5782 1.03326 2.37008
upperback 3.62592 1.79316 3.05159
thorax -4.35823 0.836276 1.54724
lowerneck -12.754 -3.35711 -13.3574
upperneck 39.864 -2.76821 2.69828
head 16.9466 -2.9692 3.04618
rclavicle 2.46493e-014 -3.33958e-014
rhumerus -27.5139 -11.6043 -74.1006
rradius 33.6416
rwrist 3.41744
rhand -12.7924 9.72383
rfingers 7.12502
rthumb 13.2933 -19.8322
lclavicle 2.46493e-014 -3.33958e-014
lhumerus -31.6221 -17.8624 96.9445
lradius 48.8165
lwrist -1.12566
lhand -17.177 26.1903
lfingers 7.12502
lthumb 9.06456 55.9755
rfemur -14.2686 -5.99135 23.3045
rtibia 27.6697
rfoot -12.4349 -4.67192
rtoes 12.1614
lfemur -20.0621 4.63238 -17.413
ltibia 50.6857
lfoot -1.46229 -4.72537
ltoes -13.0549
